name Run_300 02_newCOP3_v24.mot
datacolumns 19
datarows 95
range 0.03 0.077
DataType=double
version=3
OpenSimVersion=4.3-2021-08-27-4bc7ad9
endheader
time	R_ground_force_vx	R_ground_force_vy	R_ground_force_vz	R_ground_force_px	R_ground_force_py	R_ground_force_pz	L_ground_force_vx	L_ground_force_vy	L_ground_force_vz	L_ground_force_px	L_ground_force_py	L_ground_force_pz	R_ground_torque_x	R_ground_torque_y	R_ground_torque_z	L_ground_torque_x	L_ground_torque_y	L_ground_torque_z
0.03	-16.697767	1807.826172	-71.843369	1.187361	0	-0.223641	0	0	0	0	0	0	0	-5.113141	0	0	0	0
0.0305	-16.060289	1805.954712	-71.423416	1.18698	0	-0.223559	0	0	0	0	0	0	0	-5.147792	0	0	0	0
0.031	-15.390141	1803.985596	-70.98790700000001	1.18658	0	-0.223473	0	0	0	0	0	0	0	-5.182019	0	0	0	0
0.0315	-14.688003	1801.920166	-70.537468	1.186159	0	-0.223385	0	0	0	0	0	0	0	-5.215803	0	0	0	0
0.032	-13.954503	1799.759766	-70.072777	1.185719	0	-0.223295	0	0	0	0	0	0	0	-5.249128	0	0	0	0
0.0325	-13.190242	1797.505737	-69.594528	1.18526	0	-0.223203	0	0	0	0	0	0	0	-5.281979	0	0	0	0
0.033	-12.395795	1795.15918	-69.103424	1.184781	0	-0.22311	0	0	0	0	0	0	0	-5.314339	0	0	0	0
0.0335	-11.571729	1792.721069	-68.600182	1.184284	0	-0.223017	0	0	0	0	0	0	0	-5.346195	0	0	0	0
0.034	-10.718608	1790.192505	-68.08551799999999	1.183768	0	-0.222923	0	0	0	0	0	0	0	-5.37753	0	0	0	0
0.0345	-9.836997999999999	1787.574219	-67.560165	1.183234	0	-0.222829	0	0	0	0	0	0	0	-5.408331	0	0	0	0
0.035	-8.927473000000001	1784.86731	-67.024849	1.182682	0	-0.222736	0	0	0	0	0	0	0	-5.438585	0	0	0	0
0.0355	-7.990616	1782.072388	-66.48028600000001	1.182113	0	-0.222643	0	0	0	0	0	0	0	-5.468277	0	0	0	0
0.036	-7.027021	1779.19043	-65.92717	1.181526	0	-0.222552	0	0	0	0	0	0	0	-5.497395	0	0	0	0
0.0365	-6.037294	1776.22229	-65.36621100000001	1.180921	0	-0.222462	0	0	0	0	0	0	0	-5.525926	0	0	0	0
0.037	-5.022056	1773.168701	-64.798073	1.1803	0	-0.222374	0	0	0	0	0	0	0	-5.553858	0	0	0	0
0.0375	-3.981936	1770.030518	-64.22341900000001	1.179662	0	-0.222288	0	0	0	0	0	0	0	-5.581181	0	0	0	0
0.038	-2.917577	1766.808594	-63.642879	1.179008	0	-0.222204	0	0	0	0	0	0	0	-5.607883	0	0	0	0
0.0385	-1.82963	1763.503662	-63.057072	1.178338	0	-0.222124	0	0	0	0	0	0	0	-5.633953	0	0	0	0
0.039	-0.718756	1760.116455	-62.466579	1.177652	0	-0.222046	0	0	0	0	0	0	0	-5.659383	0	0	0	0
0.0395	0.414383	1756.647949	-61.871948	1.176951	0	-0.221971	0	0	0	0	0	0	0	-5.684161	0	0	0	0
0.04	1.569118	1753.098877	-61.273716	1.176235	0	-0.2219	0	0	0	0	0	0	0	-5.708281	0	0	0	0
0.0405	2.744782	1749.470215	-60.672367	1.175504	0	-0.221833	0	0	0	0	0	0	0	-5.731732	0	0	0	0
0.041	3.94071	1745.762573	-60.068367	1.174758	0	-0.221769	0	0	0	0	0	0	0	-5.754508	0	0	0	0
0.0415	5.156241	1741.977051	-59.462139	1.173999	0	-0.221709	0	0	0	0	0	0	0	-5.776601	0	0	0	0
0.042	6.390726	1738.114502	-58.854076	1.173226	0	-0.221654	0	0	0	0	0	0	0	-5.798005	0	0	0	0
0.0425	7.643523	1734.175659	-58.244541	1.17244	0	-0.221602	0	0	0	0	0	0	0	-5.818712	0	0	0	0
0.043	8.914009	1730.161621	-57.633854	1.17164	0	-0.221555	0	0	0	0	0	0	0	-5.838718	0	0	0	0
0.0435	10.201575	1726.073242	-57.022305	1.170828	0	-0.221512	0	0	0	0	0	0	0	-5.858016	0	0	0	0
0.044	11.505633	1721.911499	-56.410145	1.170004	0	-0.221474	0	0	0	0	0	0	0	-5.876603	0	0	0	0
0.0445	12.825618	1717.677246	-55.797596	1.169168	0	-0.22144	0	0	0	0	0	0	0	-5.894474	0	0	0	0
0.045	14.160988	1713.371704	-55.184849	1.16832	0	-0.22141	0	0	0	0	0	0	0	-5.911625	0	0	0	0
0.0455	15.511229	1708.995728	-54.57206	1.16746	0	-0.221385	0	0	0	0	0	0	0	-5.928052	0	0	0	0
0.046	16.875854	1704.550293	-53.959354	1.16659	0	-0.221364	0	0	0	0	0	0	0	-5.943753	0	0	0	0
0.0465	18.254406	1700.036743	-53.346825	1.165709	0	-0.221347	0	0	0	0	0	0	0	-5.958726	0	0	0	0
0.047	19.646461	1695.455811	-52.734543	1.164817	0	-0.221335	0	0	0	0	0	0	0	-5.972968	0	0	0	0
0.0475	21.05162	1690.808716	-52.122551	1.163915	0	-0.221327	0	0	0	0	0	0	0	-5.986477	0	0	0	0
0.048	22.469522	1686.096558	-51.510872	1.163003	0	-0.221323	0	0	0	0	0	0	0	-5.999253	0	0	0	0
0.0485	23.899832	1681.320557	-50.899498	1.162081	0	-0.221323	0	0	0	0	0	0	0	-6.011295	0	0	0	0
0.049	25.342245	1676.481567	-50.288414	1.16115	0	-0.221328	0	0	0	0	0	0	0	-6.022602	0	0	0	0
0.0495	26.79649	1671.580933	-49.67757	1.160209	0	-0.221336	0	0	0	0	0	0	0	-6.033174	0	0	0	0
0.05	28.262318	1666.619751	-49.066921	1.15926	0	-0.221347	0	0	0	0	0	0	0	-6.043011	0	0	0	0
0.0505	29.739506	1661.598999	-48.456394	1.158301	0	-0.221363	0	0	0	0	0	0	0	-6.052114	0	0	0	0
0.051	31.227858	1656.519897	-47.845909	1.157334	0	-0.221382	0	0	0	0	0	0	0	-6.060484	0	0	0	0
0.0515	32.727196	1651.383667	-47.235386	1.156358	0	-0.221404	0	0	0	0	0	0	0	-6.068122	0	0	0	0
0.052	34.237358	1646.191162	-46.624725	1.155375	0	-0.221429	0	0	0	0	0	0	0	-6.075029	0	0	0	0
0.0525	35.758202	1640.943604	-46.01384	1.154382	0	-0.221458	0	0	0	0	0	0	0	-6.081208	0	0	0	0
0.053	37.289585	1635.642212	-45.402626	1.153382	0	-0.221489	0	0	0	0	0	0	0	-6.08666	0	0	0	0
0.0535	38.831387	1630.28772	-44.790997	1.152374	0	-0.221523	0	0	0	0	0	0	0	-6.091388	0	0	0	0
0.054	40.383476	1624.881348	-44.178852	1.151359	0	-0.22156	0	0	0	0	0	0	0	-6.095393	0	0	0	0
0.0545	41.945728	1619.42395	-43.566113	1.150335	0	-0.221599	0	0	0	0	0	0	0	-6.098679	0	0	0	0
0.055	43.518013	1613.916626	-42.952702	1.149304	0	-0.221641	0	0	0	0	0	0	0	-6.101247	0	0	0	0
0.0555	45.100189	1608.360107	-42.338551	1.148266	0	-0.221685	0	0	0	0	0	0	0	-6.103102	0	0	0	0
0.056	46.692104	1602.755371	-41.723606	1.14722	0	-0.221731	0	0	0	0	0	0	0	-6.104246	0	0	0	0
0.0565	48.293591	1597.103149	-41.107819	1.146168	0	-0.221779	0	0	0	0	0	0	0	-6.104683	0	0	0	0
0.057	49.904449	1591.404297	-40.491165	1.145108	0	-0.221829	0	0	0	0	0	0	0	-6.104415	0	0	0	0
0.0575	51.524475	1585.659424	-39.873634	1.144041	0	-0.22188	0	0	0	0	0	0	0	-6.103446	0	0	0	0
0.058	53.153427	1579.869385	-39.255226	1.142967	0	-0.221933	0	0	0	0	0	0	0	-6.10178	0	0	0	0
0.0585	54.791027	1574.034546	-38.635971	1.141887	0	-0.221988	0	0	0	0	0	0	0	-6.09942	0	0	0	0
0.059	56.436981	1568.155518	-38.015911	1.1408	0	-0.222044	0	0	0	0	0	0	0	-6.096369	0	0	0	0
0.0595	58.09095	1562.232788	-37.395103	1.139707	0	-0.222101	0	0	0	0	0	0	0	-6.092632	0	0	0	0
0.06	59.75256	1556.266846	-36.773632	1.138607	0	-0.222159	0	0	0	0	0	0	0	-6.088212	0	0	0	0
0.0605	61.421406	1550.258057	-36.1516	1.137501	0	-0.222219	0	0	0	0	0	0	0	-6.083113	0	0	0	0
0.061	63.097042	1544.206665	-35.529133	1.136388	0	-0.222279	0	0	0	0	0	0	0	-6.077338	0	0	0	0
0.0615	64.778992	1538.112915	-34.906368	1.13527	0	-0.222341	0	0	0	0	0	0	0	-6.070892	0	0	0	0
0.062	66.466728	1531.977051	-34.28347	1.134146	0	-0.222403	0	0	0	0	0	0	0	-6.063777	0	0	0	0
0.0625	68.159706	1525.799194	-33.660622	1.133016	0	-0.222466	0	0	0	0	0	0	0	-6.055998	0	0	0	0
0.063	69.857338	1519.579346	-33.038021	1.131881	0	-0.22253	0	0	0	0	0	0	0	-6.047557	0	0	0	0
0.0635	71.558998	1513.317627	-32.415886	1.13074	0	-0.222595	0	0	0	0	0	0	0	-6.03846	0	0	0	0
0.064	73.26403000000001	1507.013916	-31.794451	1.129594	0	-0.222661	0	0	0	0	0	0	0	-6.028709	0	0	0	0
0.0645	74.971771	1500.668213	-31.173964	1.128443	0	-0.222727	0	0	0	0	0	0	0	-6.018308	0	0	0	0
0.065	76.681511	1494.280396	-30.554688	1.127286	0	-0.222794	0	0	0	0	0	0	0	-6.00726	0	0	0	0
0.0655	78.392509	1487.850342	-29.936899	1.126125	0	-0.222861	0	0	0	0	0	0	0	-5.995568	0	0	0	0
0.066	80.104034	1481.37793	-29.320883	1.12496	0	-0.22293	0	0	0	0	0	0	0	-5.983237	0	0	0	0
0.0665	81.815308	1474.862671	-28.706936	1.12379	0	-0.222999	0	0	0	0	0	0	0	-5.970269	0	0	0	0
0.067	83.52555099999999	1468.304688	-28.095358	1.122616	0	-0.223068	0	0	0	0	0	0	0	-5.956667	0	0	0	0
0.0675	85.233986	1461.703491	-27.48646	1.121438	0	-0.223139	0	0	0	0	0	0	0	-5.942435	0	0	0	0
0.068	86.939789	1455.058838	-26.88055	1.120256	0	-0.22321	0	0	0	0	0	0	0	-5.927576	0	0	0	0
0.06850000000000001	88.642174	1448.370483	-26.277946	1.11907	0	-0.223281	0	0	0	0	0	0	0	-5.912093	0	0	0	0
0.06900000000000001	90.340317	1441.638062	-25.678957	1.11788	0	-0.223354	0	0	0	0	0	0	0	-5.895988	0	0	0	0
0.06950000000000001	92.033401	1434.86145	-25.083897	1.116688	0	-0.223427	0	0	0	0	0	0	0	-5.879264	0	0	0	0
0.07000000000000001	93.720612	1428.040283	-24.493069	1.115492	0	-0.223501	0	0	0	0	0	0	0	-5.861925	0	0	0	0
0.07049999999999999	95.40113100000001	1421.174194	-23.906776	1.114293	0	-0.223576	0	0	0	0	0	0	0	-5.843973	0	0	0	0
0.07099999999999999	97.07414199999999	1414.263062	-23.32531	1.113092	0	-0.223652	0	0	0	0	0	0	0	-5.825411	0	0	0	0
0.07149999999999999	98.738831	1407.306519	-22.748951	1.111887	0	-0.223729	0	0	0	0	0	0	0	-5.806241	0	0	0	0
0.07199999999999999	100.394386	1400.304443	-22.177973	1.110681	0	-0.223807	0	0	0	0	0	0	0	-5.786466	0	0	0	0
0.0725	102.039986	1393.256592	-21.612635	1.109472	0	-0.223885	0	0	0	0	0	0	0	-5.766088	0	0	0	0
0.073	103.674828	1386.162842	-21.053175	1.108261	0	-0.223965	0	0	0	0	0	0	0	-5.745111	0	0	0	0
0.0735	105.298096	1379.023071	-20.499826	1.107047	0	-0.224046	0	0	0	0	0	0	0	-5.723536	0	0	0	0
0.074	106.908974	1371.837158	-19.952795	1.105832	0	-0.224128	0	0	0	0	0	0	0	-5.701365	0	0	0	0
0.0745	108.50666	1364.605103	-19.412273	1.104616	0	-0.224211	0	0	0	0	0	0	0	-5.678601	0	0	0	0
0.075	110.090324	1357.326904	-18.878433	1.103398	0	-0.224295	0	0	0	0	0	0	0	-5.655247	0	0	0	0
0.0755	111.659149	1350.002563	-18.351425	1.102178	0	-0.22438	0	0	0	0	0	0	0	-5.631304	0	0	0	0
0.076	113.212318	1342.632202	-17.831383	1.100958	0	-0.224466	0	0	0	0	0	0	0	-5.606775	0	0	0	0
0.0765	114.748993	1335.215942	-17.318411	1.099736	0	-0.224554	0	0	0	0	0	0	0	-5.581662	0	0	0	0
0.077	116.268356	1327.754028	-16.812599	1.098513	0	-0.224642	0	0	0	0	0	0	0	-5.555967	0	0	0	0
